<?xml version="1.0" standalone="no"?>
<!DOCTYPE svg PUBLIC "-//W3C//DTD SVG 20010904//EN"
 "http://www.w3.org/TR/2001/REC-SVG-20010904/DTD/svg10.dtd">
<svg version="1.0" xmlns="http://www.w3.org/2000/svg"
 width="640.000000pt" height="640.000000pt" viewBox="0 0 640.000000 640.000000"
 preserveAspectRatio="xMidYMid meet">
<metadata>
Created by potrace 1.11, written by Peter Selinger 2001-2013
</metadata>
<g transform="translate(0.000000,640.000000) scale(0.100000,-0.100000)"
fill="#000000" stroke="none">
<path d="M0 6021 l0 -378 61 -7 c34 -3 113 -6 175 -6 87 0 116 -3 128 -15 9
-9 34 -15 65 -15 28 0 51 -4 51 -10 0 -6 32 -10 75 -10 58 0 77 -4 81 -15 7
-17 84 -22 84 -5 0 6 18 10 40 10 22 0 40 -4 40 -10 0 -6 33 -10 80 -10 44 0
80 4 80 9 0 4 93 10 206 13 133 4 209 9 217 17 15 15 537 16 537 1 0 -6 33
-10 80 -10 47 0 80 4 80 10 0 6 -33 10 -80 10 -47 0 -80 4 -80 10 0 15 157 13
162 -2 3 -9 37 -12 128 -10 126 4 145 7 135 22 -8 12 21 18 98 19 66 2 117 16
117 33 0 4 18 8 40 8 22 0 40 5 40 10 0 6 -18 10 -40 10 -38 0 -40 2 -40 30 0
28 2 30 40 30 25 0 40 5 40 13 1 6 19 26 40 42 28 22 39 38 40 58 0 25 3 27
42 27 23 0 38 3 34 8 -4 4 -22 7 -39 7 -28 0 -32 4 -35 30 -2 16 -9 34 -15 38
-9 6 -9 10 0 14 26 10 12 23 -24 23 -34 0 -107 39 -75 40 7 0 10 5 7 10 -3 6
-15 10 -26 10 -15 0 -19 7 -20 38 -1 33 -2 34 -9 12 -5 -17 -8 -19 -9 -7 -1
10 -9 17 -21 17 -11 0 -20 5 -20 10 0 6 7 10 16 10 31 0 2 19 -61 40 -36 12
-65 25 -65 30 0 21 -56 43 -107 41 -42 -1 -53 2 -53 14 0 11 -12 15 -50 15
-27 0 -50 5 -50 10 0 13 -57 13 -62 0 -2 -7 -62 -11 -163 -12 -152 -1 -235
-11 -235 -30 0 -12 -78 -10 -82 2 -2 7 -80 14 -197 20 -107 5 -197 13 -200 17
-21 28 -241 49 -241 23 0 -5 8 -10 18 -10 14 0 15 -2 2 -10 -9 -6 -18 -6 -24
0 -6 6 -31 10 -56 10 -45 0 -48 2 -65 40 -17 38 -35 53 -35 30 0 -7 -6 -7 -19
0 -11 5 -29 10 -40 10 -12 0 -21 -5 -21 -10 0 -7 -6 -7 -19 0 -13 6 -145 10
-360 10 l-341 0 0 -379z m2303 -398 c-13 -2 -33 -2 -45 0 -13 2 -3 4 22 4 25
0 35 -2 23 -4z m-480 -10 c-13 -2 -33 -2 -45 0 -13 2 -3 4 22 4 25 0 35 -2 23
-4z"/>
<path d="M2894 5932 c6 -10 52 -9 62 1 4 4 -9 7 -30 7 -20 0 -35 -4 -32 -8z"/>
<path d="M2960 5855 c0 -8 7 -15 16 -15 14 0 14 3 4 15 -7 8 -14 15 -16 15 -2
0 -4 -7 -4 -15z"/>
<path d="M86 5595 c-9 -25 -9 -25 34 -25 44 0 48 4 25 26 -12 12 -15 12 -15 2
0 -10 -3 -9 -10 2 -9 13 -10 13 -10 0 0 -12 -2 -12 -9 -2 -7 11 -10 10 -15 -3z"/>
<path d="M5300 5285 c0 -8 23 -37 50 -63 50 -49 66 -81 33 -67 -88 37 -81 1 7
-38 76 -33 92 -53 34 -42 -50 9 -41 -16 10 -28 20 -5 44 -19 52 -32 8 -13 37
-32 64 -44 60 -26 71 -41 30 -41 -43 0 -29 -17 20 -25 46 -8 52 -20 14 -29
-17 -5 -36 0 -60 14 -43 27 -48 4 -5 -25 17 -11 32 -27 34 -37 3 -10 13 -18
24 -18 10 0 29 -9 43 -20 14 -11 30 -20 36 -20 10 0 102 -47 217 -110 21 -11
35 -25 32 -30 -3 -5 9 -16 27 -23 18 -8 44 -27 58 -42 28 -30 33 -30 -59 -4
-24 7 -50 23 -58 36 -11 16 -22 21 -37 17 -15 -3 -24 1 -31 18 -7 16 -20 24
-43 26 -19 2 -58 19 -87 38 -60 38 -65 40 -65 21 0 -7 18 -23 40 -36 50 -28
52 -44 4 -35 -52 10 -36 -11 19 -25 25 -6 50 -18 57 -27 8 -8 37 -27 64 -42
34 -17 45 -27 34 -30 -9 -2 -26 2 -37 7 -27 15 -40 13 -21 -2 8 -7 22 -21 30
-31 14 -18 13 -19 -19 -13 -19 4 -45 18 -58 31 -14 14 -31 22 -38 20 -8 -3
-38 1 -69 10 -61 18 -76 20 -76 8 0 -5 31 -21 70 -38 38 -16 70 -32 70 -36 0
-12 -14 -10 -56 8 -27 11 -39 13 -42 5 -2 -7 -16 -9 -38 -5 -64 12 -34 -12 32
-26 58 -12 64 -16 48 -27 -26 -19 -15 -22 41 -13 28 5 54 4 59 -1 11 -9 -51
-14 -139 -10 -37 1 -46 -1 -35 -8 8 -6 25 -11 38 -11 12 0 22 -4 22 -10 0 -5
20 -10 44 -10 27 0 46 -5 49 -12 3 -10 9 -9 23 3 23 20 154 37 154 20 0 -6 -9
-11 -20 -11 -11 0 -20 -4 -20 -8 0 -4 28 -5 63 -1 89 9 104 1 68 -38 -22 -23
-96 -38 -141 -28 -21 5 -35 2 -46 -9 -14 -15 -11 -16 30 -16 28 0 46 -5 46
-11 0 -7 8 -18 18 -26 15 -13 10 -14 -40 -9 -33 2 -58 0 -58 -5 0 -5 14 -9 31
-9 27 0 30 -2 19 -15 -11 -13 -8 -15 18 -15 22 0 31 -6 35 -21 8 -31 -22 -37
-44 -8 -10 13 -21 20 -25 16 -4 -4 -2 -13 4 -19 21 -21 13 -26 -30 -17 -60 11
-62 11 -47 -7 10 -13 28 -14 98 -10 47 3 103 8 124 12 22 4 37 2 37 -4 0 -12
-67 -24 -134 -25 -27 -1 -44 -3 -38 -5 7 -2 12 -8 12 -14 0 -6 -22 -7 -57 -4
-32 3 -52 3 -44 0 11 -5 8 -10 -10 -20 l-24 -14 28 6 c17 4 27 2 27 -6 0 -6 4
-9 9 -5 5 3 22 7 38 9 15 1 44 8 63 14 19 6 58 18 85 27 66 21 77 22 82 7 3
-7 -7 -14 -24 -18 -16 -3 -33 -15 -39 -28 -10 -23 -10 -23 20 -8 17 9 33 18
36 22 8 11 54 40 62 40 5 0 8 -4 8 -10 0 -5 -5 -9 -11 -7 -6 1 -18 -9 -27 -23
-16 -23 -16 -24 1 -17 22 8 47 -1 47 -19 0 -7 6 -11 14 -8 7 3 16 -2 19 -10 4
-9 14 -16 24 -16 14 0 13 -3 -6 -17 -17 -11 -41 -16 -78 -14 -59 3 -72 -13
-18 -23 37 -7 45 -20 19 -30 -9 -4 -14 -9 -11 -12 3 -3 15 -1 26 5 26 14 74 4
67 -14 -2 -7 4 -15 15 -18 30 -8 22 -27 -12 -27 -24 0 -30 -4 -25 -15 5 -13
-1 -15 -32 -10 -36 6 -36 6 -12 -9 14 -8 29 -12 35 -9 5 2 2 -2 -7 -10 -10 -8
-18 -22 -18 -31 0 -9 -7 -16 -15 -16 -8 0 -15 -6 -15 -13 0 -8 -12 -20 -26
-28 -23 -12 -27 -12 -40 6 -8 11 -26 20 -40 20 l-25 1 22 -17 23 -17 -28 5
c-17 4 -31 1 -36 -7 -6 -9 -13 -8 -29 6 -25 22 -27 46 -6 64 15 13 21 40 8 40
-3 0 -15 -7 -24 -16 -17 -15 -21 -14 -54 15 -33 29 -65 35 -49 9 5 -8 1 -9
-10 -5 -14 5 -17 3 -12 -8 10 -27 -18 -16 -62 24 -23 21 -42 47 -42 57 0 13
-3 15 -8 7 -6 -9 -11 -7 -20 7 -7 12 -8 21 -2 25 12 7 13 45 2 45 -4 0 -13 -5
-19 -11 -21 -21 -21 7 -1 69 15 45 18 66 10 74 -17 17 -30 0 -37 -52 -4 -28
-9 -50 -12 -50 -4 0 -30 23 -59 50 -45 43 -56 49 -68 38 -10 -9 -11 -15 -2
-20 8 -6 8 -8 -1 -8 -6 0 -15 5 -19 11 -4 7 -9 8 -13 1 -13 -21 -45 -17 -58 8
-7 14 -13 23 -14 20 -6 -37 -9 -45 -16 -47 -27 -10 -37 -23 -27 -33 7 -7 9
-20 7 -31 -5 -19 -7 -18 -39 6 -31 24 -36 25 -50 11 -18 -18 -64 -21 -64 -5 0
16 -44 56 -57 52 -5 -2 -16 3 -23 12 -11 13 -8 14 19 9 24 -5 32 -3 38 12 3
11 20 31 36 45 23 19 29 30 23 45 -7 18 -8 18 -17 2 -6 -10 -17 -18 -26 -18
-13 0 -14 8 -9 40 4 25 2 40 -4 40 -15 0 -12 21 8 43 15 19 15 20 0 14 -22 -8
-46 19 -30 35 7 7 12 18 12 25 0 20 -27 15 -43 -8 -17 -23 -24 -17 -44 41 -10
29 -10 37 4 52 10 11 12 18 5 18 -7 0 -12 4 -12 9 0 5 7 8 16 7 19 -1 42 30
30 41 -5 4 -11 2 -13 -5 -4 -10 -9 -8 -18 5 -12 16 -10 22 13 46 18 19 21 27
11 28 -8 0 -24 2 -36 3 -13 2 -23 -1 -23 -5 0 -4 -10 -9 -22 -11 -19 -2 -22
-8 -20 -35 2 -19 -1 -33 -7 -33 -6 0 -11 20 -11 48 0 33 -3 43 -10 32 -9 -14
-66 -23 -83 -13 -4 3 -2 12 5 21 7 10 8 14 4 10 -5 -4 -21 1 -35 11 l-27 19
-2 -44 c-1 -36 2 -44 16 -44 33 0 98 -50 97 -75 0 -13 -3 -27 -7 -31 -4 -4 -1
-12 6 -18 11 -8 12 -22 7 -51 -7 -39 -7 -40 -21 -17 -25 38 -59 20 -38 -20 6
-13 5 -18 -7 -18 -23 0 -18 -31 6 -37 12 -4 18 -11 15 -20 -3 -8 -6 -16 -6
-18 0 -2 -11 2 -24 8 -12 6 -30 27 -38 46 -15 33 -14 37 3 49 21 15 24 30 9
52 -9 13 -12 13 -21 -2 -13 -23 -60 -23 -101 -2 -34 18 -48 9 -48 -33 0 -16
-6 -23 -19 -23 -19 0 -32 -29 -36 -82 -4 -50 -15 -78 -31 -78 -11 0 -12 -4 -5
-18 11 -20 4 -37 -18 -44 -17 -5 -24 -38 -8 -38 29 0 57 13 57 26 0 17 26 19
36 2 5 -8 10 -5 14 8 6 15 17 19 51 19 42 0 44 -1 41 -26 -3 -22 2 -28 24 -33
l27 -7 -24 -25 c-18 -20 -29 -23 -56 -18 -26 5 -33 3 -33 -10 0 -9 -8 -16 -18
-16 -10 0 -23 -5 -30 -12 -8 -8 -15 -8 -26 1 -8 7 -20 11 -28 10 -22 -5 -59
12 -55 24 2 7 13 13 25 15 32 5 17 22 -19 22 -16 0 -29 1 -29 3 -11 72 -11 77
4 77 24 0 19 15 -9 34 -28 18 -29 37 -2 48 9 4 17 14 17 23 0 18 -12 19 -28 3
-17 -17 -36 5 -28 34 12 45 21 52 47 34 31 -21 39 -20 39 4 0 13 7 20 20 20
22 0 27 15 9 26 -6 3 -14 1 -18 -5 -4 -6 -15 -9 -24 -5 -10 3 -24 1 -31 -5
-16 -14 -21 -8 -31 37 -6 28 -4 34 12 38 11 3 25 21 32 40 7 19 17 34 22 34 5
0 9 5 9 10 0 6 -11 10 -24 10 -31 0 -40 14 -27 38 13 24 4 34 -20 21 -14 -7
-17 -17 -13 -38 8 -39 -13 -49 -21 -10 -5 21 -11 29 -21 25 -8 -3 -26 1 -39
10 -13 9 -28 13 -34 10 -13 -8 -21 18 -11 35 7 11 12 10 28 -4 24 -22 42 -5
42 40 0 22 7 37 20 45 24 15 27 43 4 34 -12 -4 -15 -2 -11 9 7 17 -3 24 -40
31 -33 6 -43 12 -43 26 0 6 8 8 19 5 16 -4 18 1 17 39 0 23 -3 41 -7 38 -4 -2
-9 3 -13 11 -3 9 -14 13 -28 11 -13 -3 -33 -5 -46 -5 -20 -1 -21 -4 -12 -21 6
-11 15 -18 21 -15 5 4 9 -3 9 -15 l0 -21 -26 20 c-25 20 -51 20 -38 0 3 -5 0
-17 -7 -25 -9 -11 -8 -18 5 -32 18 -20 22 -52 6 -52 -5 0 -10 5 -10 10 0 6 -4
10 -10 10 -16 0 -11 -28 7 -38 14 -8 13 -12 -10 -27 -15 -9 -27 -24 -27 -32 0
-11 -4 -11 -20 -3 -11 6 -24 9 -29 6 -15 -10 0 -54 21 -59 11 -3 22 -15 25
-26 3 -13 14 -21 27 -21 19 0 18 -3 -11 -25 -31 -25 -31 -26 -16 -56 14 -28
14 -33 -2 -64 -22 -39 -15 -61 22 -77 15 -7 33 -19 38 -26 6 -7 21 -18 35 -25
22 -11 24 -19 26 -82 1 -43 -3 -78 -11 -91 -7 -11 -15 -31 -17 -45 -4 -28 -35
-38 -45 -13 -4 11 1 22 13 31 16 12 17 15 4 23 -8 6 -27 7 -42 4 -36 -7 -90 5
-85 19 1 5 12 16 23 23 16 11 24 11 46 0 25 -13 28 -13 33 5 4 10 10 19 15 19
4 0 15 11 24 25 19 29 7 65 -21 65 -9 0 -25 8 -36 18 -15 12 -21 14 -24 5 -3
-7 -10 -13 -18 -13 -7 0 -18 -7 -25 -15 -9 -11 -16 -12 -26 -5 -20 17 -57 -10
-49 -35 19 -62 27 -96 23 -100 -7 -7 -72 19 -81 33 -4 6 -15 12 -24 12 -9 0
-21 7 -27 15 -15 21 -91 34 -84 14 3 -8 15 -14 29 -14 35 0 48 -44 23 -79 -10
-14 -29 -29 -41 -32 -16 -4 -23 -14 -23 -31 0 -21 -4 -24 -32 -21 -28 3 -34 8
-38 33 -4 22 -11 31 -28 33 -20 3 -21 1 -13 -21 5 -14 7 -34 4 -46 -6 -24 0
-27 80 -36 38 -4 57 -11 54 -18 -2 -7 -13 -13 -24 -15 -15 -2 -19 -9 -16 -22
7 -25 -27 -34 -63 -16 -19 11 -30 12 -35 5 -4 -7 -18 -5 -40 7 -19 9 -47 18
-64 20 l-30 2 28 -11 c33 -13 36 -27 5 -20 -24 6 -76 53 -97 88 -9 15 -11 16
-7 3 3 -10 1 -18 -4 -18 -6 0 -10 4 -10 9 0 5 -10 11 -21 14 -16 4 -20 11 -16
26 4 17 -1 22 -32 27 -20 4 -40 10 -46 14 -18 13 -118 39 -169 43 -37 3 -51 8
-57 23 -4 10 -8 13 -8 5 -1 -11 -4 -11 -18 0 -11 10 -14 10 -9 2 4 -7 2 -13
-4 -13 -6 0 -13 7 -16 15 -4 8 -10 12 -15 9 -5 -3 -9 -1 -9 4 0 14 -29 10 -34
-4 -3 -8 0 -11 8 -8 8 3 17 0 21 -6 14 -22 -6 -23 -35 -2 -16 12 -37 22 -47
21 -11 0 -13 -3 -5 -6 6 -2 12 -9 12 -15 0 -14 -50 -1 -72 19 -10 9 -18 11
-18 6 0 -6 -6 -11 -12 -10 -43 1 -69 -6 -101 -27 -19 -13 -39 -21 -43 -18 -5
4 -2 -1 5 -11 13 -16 11 -17 -24 -11 -28 4 -35 3 -29 -7 5 -9 2 -11 -9 -6 -10
4 -18 0 -22 -12 -3 -11 -15 -21 -26 -24 -12 -3 -18 -10 -15 -15 3 -6 -5 -13
-18 -16 -17 -4 -28 -17 -36 -41 -6 -19 -16 -35 -21 -35 -15 0 -10 -26 9 -43
10 -10 33 -17 50 -17 37 0 38 -2 16 -34 -14 -23 -14 -25 6 -31 13 -4 19 -12
16 -21 -7 -18 4 -17 28 1 11 8 30 15 42 15 12 0 24 6 27 14 4 9 14 12 25 9 11
-2 31 2 43 10 13 8 62 22 107 32 79 16 89 16 178 0 91 -16 95 -18 101 -45 3
-16 11 -31 19 -34 8 -3 14 -17 14 -31 0 -14 6 -28 13 -31 13 -5 16 -68 4 -80
-10 -11 -9 -26 2 -20 5 4 7 -3 4 -14 -3 -11 -9 -20 -13 -20 -4 0 -5 -11 -2
-25 2 -14 8 -25 12 -25 11 0 46 -33 58 -55 18 -35 -4 -147 -33 -169 -9 -6 -16
-16 -15 -21 4 -21 -2 -69 -7 -57 -3 9 -10 4 -19 -14 -11 -20 -11 -30 -3 -40 9
-11 7 -14 -11 -14 -16 0 -20 -4 -16 -16 4 -12 1 -14 -14 -9 -11 4 -20 2 -20
-4 0 -6 11 -11 25 -11 14 0 25 -5 25 -10 0 -6 -11 -8 -27 -4 -22 6 -25 4 -20
-9 3 -9 2 -19 -3 -22 -6 -4 -10 6 -11 22 0 15 -3 22 -6 16 -2 -7 -9 -13 -15
-13 -6 0 -8 7 -4 15 4 10 -1 15 -14 15 -11 0 -20 5 -20 10 0 18 -29 10 -40
-10 -12 -23 -41 -20 -71 6 -9 8 -24 12 -34 8 -11 -5 -21 -1 -27 10 -5 9 -14
14 -19 10 -6 -3 -23 5 -37 18 -52 47 -102 71 -102 48 0 -5 7 -10 15 -10 20 0
19 -6 -4 -29 -10 -10 -21 -25 -23 -32 -7 -21 -218 -20 -219 1 0 10 -3 9 -10
-5 -7 -16 -8 -12 -5 15 2 19 8 44 12 55 10 26 -64 -42 -76 -70 -7 -16 -9 -10
-9 23 -1 24 6 57 15 74 9 17 22 52 30 79 14 47 29 67 41 55 4 -3 -2 -15 -12
-26 -21 -24 -19 -28 23 -36 29 -6 33 -3 61 42 17 26 31 58 31 71 0 13 4 23 9
23 5 0 12 12 16 27 6 26 7 25 29 -22 24 -48 24 -81 1 -100 -9 -7 -1 -18 31
-43 32 -24 44 -28 44 -17 0 18 4 19 31 3 16 -10 23 -10 26 -1 2 7 19 9 43 7
21 -3 41 0 45 6 7 12 85 14 85 2 0 -8 43 -32 58 -32 12 0 -67 50 -80 51 -7 0
-4 4 7 8 12 6 33 3 55 -6 53 -23 81 -27 48 -8 -16 8 -28 18 -28 20 0 3 21 2
48 0 40 -4 43 -4 21 5 -23 9 -26 16 -22 46 3 29 1 35 -14 32 -11 -2 -18 3 -18
12 0 8 -12 20 -27 27 -16 7 -28 17 -28 23 0 5 -6 10 -14 10 -8 0 -16 6 -19 14
-8 20 -105 38 -164 31 -26 -3 -68 -9 -93 -12 -25 -3 -48 -11 -52 -17 -5 -7 -8
-5 -8 7 0 18 -15 23 -25 7 -4 -6 -15 -6 -31 0 -14 6 -29 8 -34 5 -5 -3 -11 -1
-15 5 -3 5 -15 10 -26 10 -23 0 -24 12 -4 65 8 22 14 52 15 67 0 26 0 26 -30
11 -35 -17 -80 -10 -80 11 0 8 11 23 25 34 42 33 30 49 -32 43 -13 -1 -23 4
-23 11 0 7 -11 23 -25 36 -27 26 -24 45 11 80 32 30 31 60 -2 72 -24 9 -25 13
-18 57 6 43 5 46 -12 38 -11 -5 -37 -10 -59 -12 -22 -2 -47 -7 -55 -10 -8 -3
-22 -7 -30 -7 -8 -1 -17 -14 -20 -31 -7 -39 -34 -44 -68 -12 -15 14 -42 28
-60 32 -19 4 -43 18 -55 31 -15 17 -24 21 -33 13 -7 -6 -10 -17 -7 -25 7 -20
-27 -83 -49 -90 -11 -3 -18 -15 -18 -30 0 -32 -18 -66 -31 -59 -14 9 -11 41 5
54 16 13 11 42 -15 84 l-17 29 39 35 c44 40 47 49 19 56 -29 8 -34 31 -14 72
10 22 13 39 8 43 -6 4 -11 17 -11 29 -1 18 9 27 47 45 49 22 71 60 49 82 -5 6
-9 17 -9 26 0 9 -10 21 -23 27 -18 9 -25 6 -40 -13 -14 -19 -26 -23 -65 -22
-25 0 -57 7 -69 15 -26 18 -28 15 -38 -59 -3 -26 -11 -50 -16 -54 -6 -4 -8
-21 -5 -40 6 -28 3 -35 -16 -45 -30 -16 -43 -38 -39 -71 3 -34 -20 -68 -56
-84 l-28 -11 27 -13 c28 -13 42 -35 33 -50 -3 -5 -27 -12 -53 -16 -78 -12 -98
-57 -48 -112 l21 -24 -27 -22 c-33 -26 -34 -30 -8 -56 17 -17 18 -24 9 -41 -9
-18 -17 -20 -52 -15 -23 4 -43 11 -45 16 -5 14 -24 12 -46 -5 -18 -13 -18 -15
4 -42 12 -16 17 -29 11 -31 -7 -2 -9 -23 -5 -58 10 -86 -27 -113 -109 -79 -19
8 -59 14 -88 14 -30 0 -74 5 -99 11 -25 6 -55 14 -68 17 -12 3 -35 0 -51 -7
-24 -9 -34 -9 -60 4 -25 13 -31 23 -31 49 0 79 -18 90 -101 66 -68 -21 -77 6
-78 228 0 65 -67 173 -108 173 -4 0 -18 16 -31 36 -23 35 -24 35 -48 20 -13
-9 -24 -14 -24 -11 0 3 -17 -4 -37 -15 -21 -11 -43 -20 -50 -20 -37 0 -86 -45
-81 -73 4 -22 1 -23 -62 -24 -95 -1 -136 -21 -151 -73 -24 -80 -93 -108 -145
-59 l-24 22 0 -1946 0 -1947 3200 0 3200 0 0 1764 c0 970 -3 1771 -6 1780 -3
9 -12 16 -20 16 -7 0 -18 9 -24 20 -6 11 -21 20 -34 20 -13 0 -31 9 -40 19
-17 19 -16 21 19 58 31 32 36 34 32 16 -6 -26 8 -41 17 -18 3 8 15 14 28 12
21 -2 23 2 26 57 4 69 -2 88 -22 80 -9 -3 -14 -9 -13 -12 1 -4 -1 -8 -5 -9
-18 -6 -28 -2 -28 12 0 8 -9 23 -20 33 -21 19 -21 19 27 33 26 7 51 12 56 11
4 -1 7 37 7 85 0 76 -3 90 -22 111 l-23 23 22 17 c20 16 22 25 22 147 0 131
-15 212 -37 208 -7 -2 -12 3 -12 11 0 8 -3 21 -6 29 -4 10 2 17 18 20 13 3 3
5 -22 4 -43 -1 -45 -1 -42 26 3 25 0 27 -30 27 -25 0 -29 3 -18 10 8 5 36 10
63 10 26 0 47 5 47 10 0 6 -19 10 -42 10 l-43 1 29 23 c15 13 24 26 19 29 -5
3 -26 -8 -46 -24 l-37 -31 -11 32 c-6 17 -16 29 -23 27 -6 -3 -10 -9 -9 -13 1
-5 4 -23 8 -39 l7 -30 -22 25 -22 25 6 -32 c6 -33 -9 -47 -20 -19 -7 18 -33
10 -55 -17 -9 -11 -21 -17 -28 -13 -21 13 -11 41 22 60 19 11 27 21 19 23 -7
3 -19 -1 -27 -7 -15 -13 -45 -7 -45 8 0 5 18 22 41 36 54 36 42 45 -17 12 -42
-24 -64 -26 -64 -8 0 4 27 27 60 51 53 39 73 61 54 61 -4 0 -34 -18 -67 -40
-65 -44 -66 -44 -92 16 -17 37 -41 59 -49 45 -4 -6 5 -29 19 -52 15 -22 25
-42 23 -44 -6 -6 -142 56 -150 68 -4 7 -8 24 -8 38 0 31 -40 50 -40 21 -1 -13
-7 -10 -26 12 -21 23 -24 36 -20 62 7 36 -8 54 -23 27 -14 -26 -25 -8 -23 38
3 49 -5 64 -25 47 -17 -14 -30 -1 -65 67 -11 22 -26 43 -32 47 -21 14 -28 -10
-9 -38 17 -27 17 -28 0 -21 -10 4 -24 7 -31 7 -7 0 -27 19 -44 43 -74 101
-152 164 -152 122z m430 -464 c25 -22 42 -43 38 -47 -7 -6 -148 71 -148 81 0
3 15 5 33 5 23 -1 45 -12 77 -39z m-1428 -36 c0 -5 -5 -11 -11 -13 -6 -2 -11
4 -11 13 0 9 5 15 11 13 6 -2 11 -8 11 -13z m49 -35 c15 0 10 -17 -6 -24 -9
-3 -19 3 -26 16 -10 18 -9 20 6 15 9 -4 21 -7 26 -7z m1583 -29 c16 -3 36 -17
45 -30 l16 -24 -35 6 c-38 8 -81 35 -88 57 -3 9 0 11 14 5 11 -4 32 -10 48
-14z m-1659 -66 c0 -10 -6 -20 -12 -22 -8 -3 -13 5 -13 22 0 17 5 25 13 23 6
-3 12 -13 12 -23z m1735 -25 c0 -5 -4 -10 -9 -10 -6 0 -13 5 -16 10 -3 6 1 10
9 10 9 0 16 -4 16 -10z m140 -40 c0 -5 -10 -14 -21 -21 -12 -6 -19 -7 -17 -2
3 4 8 16 11 26 7 18 27 15 27 -3z m-285 -20 l20 -9 -20 0 c-11 0 -27 4 -35 9
-13 9 -13 10 0 9 8 0 24 -4 35 -9z m335 -7 c0 -10 -32 -43 -42 -43 -13 0 -9
17 8 34 16 16 34 21 34 9z m70 -8 c0 -8 -7 -15 -16 -15 -14 0 -14 3 -4 15 7 8
14 15 16 15 2 0 4 -7 4 -15z m-2010 -35 c0 -5 -4 -10 -10 -10 -5 0 -10 5 -10
10 0 6 5 10 10 10 6 0 10 -4 10 -10z m1973 -4 c6 -15 -11 -36 -29 -36 -18 0
-27 32 -12 42 19 12 35 10 41 -6z m-215 -32 c21 -6 3 -24 -22 -24 -13 0 -43 9
-66 19 -66 30 -14 32 88 5z m-986 -22 c8 -8 7 -13 -6 -18 -11 -4 -24 1 -36 14
-19 20 -19 21 6 18 13 -2 30 -8 36 -14z m738 -2 c8 -5 11 -10 5 -10 -5 0 -17
5 -25 10 -8 5 -10 10 -5 10 6 0 17 -5 25 -10z m320 -10 c0 -13 -11 -13 -30 0
-12 8 -11 10 8 10 12 0 22 -4 22 -10z m118 -132 c-5 -15 -68 -24 -68 -9 0 12
18 19 48 20 15 1 22 -4 20 -11z m122 -3 c7 -8 19 -15 27 -15 10 0 14 -7 10
-20 -3 -10 -1 -20 4 -22 5 -2 6 -13 3 -25 -5 -17 -13 -23 -33 -22 -23 0 -24 1
-6 9 19 8 19 9 -3 9 -12 1 -25 -6 -28 -14 -7 -17 -74 -21 -74 -5 0 6 4 10 8
10 5 0 15 11 22 25 9 18 19 23 32 19 10 -3 18 -3 18 0 0 3 -20 11 -45 17 -46
12 -49 24 -11 39 33 13 62 11 76 -5z m-1230 -25 c0 -5 -4 -10 -10 -10 -5 0
-10 5 -10 10 0 6 5 10 10 10 6 0 10 -4 10 -10z m-711 -29 c6 -10 7 -21 4 -25
-13 -12 -31 -6 -36 13 -9 34 16 43 32 12z m681 -12 c0 -5 -9 -9 -20 -9 -19 0
-26 11 -14 23 8 8 34 -3 34 -14z m888 -5 c-9 -9 -21 -13 -27 -10 -20 13 -11
26 16 26 25 0 26 -1 11 -16z m-1057 -115 c-24 -26 -26 -22 -11 17 8 20 14 24
22 16 7 -7 4 -17 -11 -33z m1463 16 c-29 -22 -42 -17 -15 6 13 11 26 17 29 14
3 -3 -3 -12 -14 -20z m-384 11 c0 -2 -7 -6 -15 -10 -8 -3 -15 -1 -15 4 0 6 7
10 15 10 8 0 15 -2 15 -4z m-4160 -37 c17 -13 33 -33 36 -46 9 -34 -15 -122
-36 -133 -32 -17 -43 -12 -36 15 4 16 2 25 -5 25 -7 0 -9 12 -6 33 3 25 -2 39
-24 65 -28 32 -35 52 -23 65 12 11 63 -2 94 -24z m3036 -31 c23 -22 33 -58 16
-58 -14 0 -32 23 -32 42 0 10 -4 18 -10 18 -5 0 -10 5 -10 10 0 16 10 12 36
-12z m-876 -4 c0 -8 -4 -12 -10 -9 -5 3 -10 10 -10 16 0 5 5 9 10 9 6 0 10 -7
10 -16z m2364 -11 c20 -15 20 -15 -8 -8 -16 3 -39 13 -50 22 -20 15 -20 15 8
8 16 -3 39 -13 50 -22z m-2138 -30 c-10 -10 -19 5 -10 18 6 11 8 11 12 0 2 -7
1 -15 -2 -18z m-203 -45 c-8 -15 -32 -8 -43 11 -14 27 -13 29 13 33 15 2 24
-3 28 -17 3 -11 4 -23 2 -27z m1505 18 c-2 -13 4 -25 16 -31 11 -5 21 -16 24
-22 6 -19 -25 -15 -40 5 -14 19 -39 22 -51 7 -5 -6 -7 -4 -4 5 2 8 9 16 15 16
7 1 17 2 22 3 6 0 10 8 10 16 0 8 -4 15 -10 15 -5 0 -10 4 -10 10 0 5 7 7 16
3 8 -3 14 -15 12 -27z m702 14 c0 -5 -7 -10 -15 -10 -8 0 -15 5 -15 10 0 6 7
10 15 10 8 0 15 -4 15 -10z m40 -5 c0 -8 -4 -15 -10 -15 -5 0 -10 7 -10 15 0
8 5 15 10 15 6 0 10 -7 10 -15z m-1160 -16 c0 -6 -4 -7 -10 -4 -5 3 -10 11
-10 16 0 6 5 7 10 4 6 -3 10 -11 10 -16z m40 1 c0 -5 -2 -10 -4 -10 -3 0 -8 5
-11 10 -3 6 -1 10 4 10 6 0 11 -4 11 -10z m-899 -25 c-1 -15 -24 -12 -29 3 -3
9 2 13 12 10 10 -1 17 -7 17 -13z m1206 -1 c-3 -3 -12 -4 -19 -1 -8 3 -5 6 6
6 11 1 17 -2 13 -5z m-707 -14 c0 -5 -4 -10 -10 -10 -5 0 -10 5 -10 10 0 6 5
10 10 10 6 0 10 -4 10 -10z m566 -14 c9 -9 10 -17 4 -21 -5 -3 -10 -1 -10 4 0
6 -13 11 -30 11 -16 0 -30 5 -30 10 0 15 49 12 66 -4z m1011 8 c-3 -3 -12 -4
-19 -1 -8 3 -5 6 6 6 11 1 17 -2 13 -5z m-52 -13 c10 -18 -15 -22 -37 -7 l-22
16 26 0 c15 0 29 -4 33 -9z m-5887 -23 c17 -17 15 -26 -8 -38 -17 -9 -22 -7
-29 12 -12 32 13 50 37 26z m5032 -19 c0 -5 -9 -9 -20 -9 -22 0 -27 16 -7 23
15 5 27 -1 27 -14z m90 0 c0 -11 -4 -17 -10 -14 -5 3 -10 13 -10 21 0 8 5 14
10 14 6 0 10 -9 10 -21z m46 -4 c-3 -9 0 -15 9 -15 20 0 19 -19 -2 -42 -19
-21 -6 -23 21 -3 18 13 18 16 2 40 l-17 25 32 -2 c42 -3 84 -54 63 -76 -12
-11 -18 -11 -29 -2 -9 8 -15 8 -15 2 0 -6 5 -12 12 -14 6 -2 8 -10 4 -16 -5
-9 -12 -9 -28 -1 -16 9 -23 8 -29 -2 -14 -22 -11 -28 11 -22 24 6 27 -12 4
-21 -9 -4 -18 -5 -18 -4 -25 42 -40 59 -51 55 -8 -4 -12 2 -11 19 0 13 7 26
14 29 9 3 11 13 7 26 -5 14 -2 25 6 30 19 12 22 11 15 -6z m-1471 -26 c0 -8
-10 -15 -22 -17 -25 -4 -33 22 -10 31 18 8 32 2 32 -14z m565 -29 c12 -20 2
-38 -33 -55 -38 -19 -35 -20 -39 13 -2 17 -9 27 -20 27 -21 0 -32 11 -24 23 9
15 106 8 116 -8z m825 0 c3 -5 1 -10 -4 -10 -6 0 -11 5 -11 10 0 6 2 10 4 10
3 0 8 -4 11 -10z m-235 -62 c0 -4 -9 -8 -20 -8 -11 0 -20 6 -20 14 0 8 -5 16
-12 18 -7 3 -8 10 -4 17 6 9 14 7 32 -10 13 -12 24 -26 24 -31z m20 37 c13
-16 3 -20 -24 -9 -9 3 -13 10 -10 15 8 13 20 11 34 -6z m533 -74 c7 -9 -1 -7
-18 5 -16 12 -38 23 -47 27 -9 3 -22 16 -28 28 -10 18 -5 17 34 -12 26 -18 52
-40 59 -48z m451 64 c4 -13 2 -14 -14 -5 -23 13 -26 20 -6 20 8 0 16 -7 20
-15z m-2074 -5 c0 -5 -4 -10 -10 -10 -5 0 -10 5 -10 10 0 6 5 10 10 10 6 0 10
-4 10 -10z m1517 -16 c5 -15 -28 -27 -40 -15 -5 5 -6 14 -2 21 8 13 37 9 42
-6z m623 6 c13 -8 13 -10 -2 -10 -9 0 -20 5 -23 10 -8 13 5 13 25 0z m-768
-18 c-7 -2 -10 -8 -6 -13 6 -10 -9 -12 -19 -2 -10 10 14 34 26 26 8 -5 7 -8
-1 -11z m-774 -50 c-9 -4 -48 35 -48 49 0 6 12 -1 28 -17 15 -16 24 -30 20
-32z m1460 39 c11 -7 10 -9 -3 -14 -9 -4 -13 -3 -10 3 10 16 -7 12 -27 -7 -15
-14 -18 -14 -18 -1 0 28 30 37 58 19z m-678 -32 c0 -10 -12 -11 -34 -3 -25 10
-19 22 9 16 14 -2 25 -8 25 -13z m-165 1 c3 -5 1 -10 -4 -10 -6 0 -11 5 -11
10 0 6 2 10 4 10 3 0 8 -4 11 -10z m230 -21 c4 -6 5 -12 2 -15 -7 -7 -37 7
-37 17 0 13 27 11 35 -2z m270 0 c11 -17 -1 -21 -15 -4 -8 9 -8 15 -2 15 6 0
14 -5 17 -11z m-355 -9 c0 -5 -2 -10 -4 -10 -3 0 -8 5 -11 10 -3 6 -1 10 4 10
6 0 11 -4 11 -10z m140 0 c0 -5 -7 -7 -15 -4 -8 4 -15 8 -15 10 0 2 7 4 15 4
8 0 15 -4 15 -10z m590 -7 c0 -17 -16 -30 -43 -37 -43 -10 -52 4 -15 24 35 20
58 25 58 13z m-1622 -37 c3 -12 -1 -17 -10 -14 -7 3 -15 13 -16 22 -3 12 1 17
10 14 7 -3 15 -13 16 -22z m832 -27 c0 -6 -4 -7 -10 -4 -5 3 -10 11 -10 16 0
6 5 7 10 4 6 -3 10 -11 10 -16z m310 -10 c10 0 8 -3 -5 -9 -32 -14 -55 -11
-55 6 0 12 6 15 23 10 12 -3 29 -6 37 -7z m220 -48 c0 -19 -96 -35 -107 -19
-2 5 16 8 41 8 25 0 48 5 51 10 8 13 15 13 15 1z m-267 -21 c4 -17 0 -20 -24
-20 -17 0 -29 5 -29 13 0 32 45 38 53 7z m463 -15 c11 -11 9 -14 -9 -19 -32
-8 -37 -7 -31 7 3 9 -9 17 -33 25 l-38 11 49 -5 c27 -3 55 -12 62 -19z m-140
-34 c-5 -8 -56 -3 -56 5 0 2 14 4 31 4 16 0 28 -4 25 -9z m19 -141 c4 -6 2
-17 -5 -24 -13 -17 -86 -26 -87 -11 0 5 -4 18 -8 28 -6 15 -1 17 43 17 28 0
54 -5 57 -10z m225 -12 c0 -4 -4 -8 -9 -8 -6 0 -12 4 -15 8 -3 5 1 9 9 9 8 0
15 -4 15 -9z m-2570 -45 c18 -23 21 -38 18 -84 -3 -36 -10 -63 -21 -74 -10 -9
-26 -34 -37 -55 -25 -50 -89 -116 -119 -123 -42 -10 -79 3 -90 32 -7 19 -10
21 -10 7 -1 -14 -4 -16 -14 -7 -20 16 -7 191 14 191 5 0 9 7 9 15 0 8 7 15 15
15 8 0 15 4 15 9 0 5 6 11 13 14 9 3 13 -14 15 -64 2 -40 -1 -69 -6 -69 -10 0
-11 -29 -1 -32 2 -1 14 1 27 4 20 6 22 9 11 26 -10 15 -9 23 3 41 12 17 17 19
25 9 15 -19 23 -58 11 -58 -5 0 -6 -5 -3 -10 10 -15 31 11 40 48 8 38 -1 72
-19 72 -8 0 -20 8 -27 17 -12 15 -12 16 2 11 9 -4 26 0 37 8 17 12 22 12 32
-1 13 -15 8 -102 -7 -141 -4 -11 -3 -15 5 -10 6 4 14 23 18 44 4 20 11 44 16
52 6 10 7 4 3 -20 -5 -33 -5 -34 9 -14 26 36 31 100 11 130 -15 23 -21 26 -58
20 -39 -6 -41 -5 -23 9 30 23 62 18 86 -12z m2640 -162 c0 -5 -9 -7 -20 -4
-11 3 -20 7 -20 9 0 2 9 4 20 4 11 0 20 -4 20 -9z m-3700 -91 c0 -5 8 -11 18
-13 9 -3 4 -4 -13 -2 -16 2 -33 4 -37 4 -17 2 -7 17 12 18 11 1 20 -2 20 -7z
m630 0 c0 -5 -2 -10 -4 -10 -3 0 -8 5 -11 10 -3 6 -1 10 4 10 6 0 11 -4 11
-10z m-470 -7 c0 -5 -21 -9 -48 -10 -34 -2 -42 0 -27 7 25 11 75 13 75 3z m45
-3 c-28 -12 -37 -12 -30 0 3 6 16 10 28 9 21 0 21 -1 2 -9z m335 6 c0 -3 -4
-8 -10 -11 -5 -3 -10 -1 -10 4 0 6 5 11 10 11 6 0 10 -2 10 -4z m-635 -61 c10
-19 15 -40 12 -47 -2 -7 -8 -1 -12 15 -4 15 -11 27 -16 27 -5 0 -9 9 -9 20 0
29 7 25 25 -15z m705 15 c0 -5 -4 -10 -10 -10 -5 0 -10 5 -10 10 0 6 5 10 10
10 6 0 10 -4 10 -10z m-410 -14 c0 -7 -7 -19 -15 -26 -13 -11 -13 -15 -3 -21
9 -6 9 -9 1 -9 -6 0 -15 5 -19 11 -5 8 -8 8 -13 0 -4 -6 -26 -12 -49 -14 -24
-3 -45 -7 -49 -10 -8 -9 -43 38 -43 57 0 24 29 19 40 -6 7 -18 9 -19 9 -5 1
26 31 34 47 12 13 -17 14 -17 14 -2 0 23 30 22 31 0 0 -15 3 -14 16 5 17 25
33 29 33 8z m36 -28 c-3 -22 -22 -29 -20 -8 3 25 5 30 14 30 5 0 8 -10 6 -22z
m-252 -18 c6 -34 42 -50 114 -51 29 -1 55 -6 58 -11 3 -5 18 1 32 14 14 13 22
17 18 11 -11 -20 6 -15 45 11 29 20 42 23 70 16 29 -7 31 -8 9 -10 -14 -1 -28
-2 -31 -2 -6 1 -18 -29 -24 -63 -9 -46 -22 -61 -48 -56 -5 1 -6 -3 -2 -9 3 -6
11 -8 16 -5 5 4 9 -1 9 -10 0 -10 -7 -15 -17 -13 -10 2 -26 -5 -36 -15 -10
-10 -24 -16 -30 -14 -6 2 -19 -6 -29 -17 -10 -12 -17 -16 -18 -9 0 7 -7 10
-16 6 -10 -4 -22 1 -30 12 -8 10 -17 16 -20 12 -4 -4 -1 -13 6 -22 7 -9 9 -19
5 -23 -4 -4 -10 -1 -12 6 -3 6 -12 12 -22 12 -9 0 -22 5 -29 12 -9 9 -12 9
-12 0 0 -7 -7 -12 -15 -12 -8 0 -15 7 -15 15 0 8 -4 15 -10 15 -13 0 -9 193 5
202 6 5 5 8 -3 8 -7 0 -11 4 -8 8 11 18 34 7 40 -18z m283 8 c-3 -8 -6 -5 -6
6 -1 11 2 17 5 13 3 -3 4 -12 1 -19z m-130 -44 c-3 -3 -12 -4 -19 -1 -8 3 -5
6 6 6 11 1 17 -2 13 -5z m683 -121 c11 -10 20 -25 20 -35 0 -9 4 -19 10 -23 5
-3 7 -12 4 -20 -3 -7 2 -25 12 -40 14 -22 15 -32 5 -64 -14 -47 -14 -61 -1
-41 7 11 8 5 4 -20 -4 -19 -11 -39 -15 -45 -5 -5 -9 -19 -9 -31 0 -13 -4 -25
-9 -28 -5 -3 -23 -34 -41 -68 -18 -35 -39 -70 -46 -79 -8 -8 -14 -21 -14 -27
0 -6 -6 -17 -13 -24 -22 -23 -67 -120 -61 -131 3 -7 -2 -3 -10 7 -18 23 -21
14 -5 -15 8 -15 7 -24 -2 -35 -13 -16 -91 -59 -98 -55 -2 2 -8 -4 -13 -13 -5
-9 -13 -14 -19 -11 -5 4 -9 -5 -9 -18 0 -31 -10 -40 -27 -25 -7 6 -17 7 -21 3
-4 -4 -1 -10 6 -12 6 -3 12 -11 12 -19 0 -9 -13 -2 -35 19 -19 19 -35 36 -35
38 0 2 19 4 43 4 36 0 42 3 40 20 -1 11 0 14 4 6 4 -11 7 -11 14 0 7 12 9 11
9 -1 1 -8 7 0 15 19 8 18 12 38 8 44 -3 6 -1 7 5 3 25 -15 -1 41 -27 61 -9 6
-16 17 -17 25 0 7 -2 24 -2 37 -2 23 -3 24 -22 6 -11 -10 -20 -13 -20 -7 0 16
-27 15 -33 0 -2 -7 -8 -10 -12 -6 -4 4 -4 15 0 25 5 10 7 21 7 26 -1 4 2 7 8
7 18 0 10 15 -14 26 -20 9 -26 9 -30 -2 -3 -8 -20 -14 -39 -14 -26 0 -43 10
-80 45 -25 25 -50 45 -54 45 -4 -1 -9 3 -11 9 -4 13 60 25 87 16 12 -4 21 -2
21 4 0 6 9 11 19 11 11 0 23 5 27 11 3 6 22 17 40 25 19 8 34 18 34 23 0 5 14
12 30 16 17 4 30 11 30 16 0 5 7 9 15 9 8 0 15 4 15 9 0 6 19 14 43 19 24 5
41 14 39 21 -1 6 5 14 13 17 8 3 13 9 11 13 -2 3 20 22 50 41 30 18 54 40 54
48 0 8 9 26 20 42 11 15 22 36 24 46 7 31 18 64 22 64 2 0 13 -8 24 -17z
m-655 -73 c3 -5 1 -10 -4 -10 -6 0 -11 5 -11 10 0 6 2 10 4 10 3 0 8 -4 11
-10z m-45 -246 c0 -8 -4 -14 -10 -14 -5 0 -10 4 -10 9 0 5 -3 18 -7 28 -6 16
-5 16 10 4 9 -7 17 -20 17 -27z m26 -36 c4 -13 14 -28 23 -35 9 -6 16 -20 17
-30 3 -46 4 -54 12 -50 13 9 41 -38 31 -54 -7 -11 -9 -11 -9 4 0 9 -6 17 -13
17 -7 0 -21 14 -30 30 -10 17 -23 30 -28 30 -6 0 -8 8 -4 19 3 10 1 29 -5 42
-10 23 -10 22 -6 -6 l5 -30 -15 33 c-14 32 -12 52 6 52 5 0 12 -10 16 -22z
m2863 -94 c12 -19 16 -32 11 -29 -11 7 -43 65 -36 65 2 0 13 -16 25 -36z m266
-24 c-3 -5 -16 -15 -28 -21 -19 -9 -19 -8 3 10 28 23 34 26 25 11z m-185 -82
c0 -14 -19 1 -31 25 -12 22 -12 22 10 3 11 -11 21 -23 21 -28z m-2790 -21 c0
-4 -13 2 -29 15 -15 13 -27 26 -24 30 5 9 53 -32 53 -45z m2880 29 c0 -2 -7
-7 -16 -10 -8 -3 -12 -2 -9 4 6 10 25 14 25 6z m-53 -27 c-17 -10 -17 -12 1
-37 23 -32 82 -138 82 -147 0 -3 -9 -1 -20 5 -11 6 -20 16 -20 22 0 6 -18 42
-40 80 -22 39 -40 71 -40 73 0 4 28 12 45 14 6 0 2 -4 -8 -10z m-2760 -81 c-3
-8 -6 -5 -6 6 -1 11 2 17 5 13 3 -3 4 -12 1 -19z m109 0 c4 -7 3 -8 -4 -4 -7
4 -12 0 -12 -10 0 -10 -3 -15 -6 -11 -7 6 2 37 10 37 3 0 8 -5 12 -12z m7 -79
c-9 -9 -12 -7 -10 9 1 14 5 18 11 12 7 -7 6 -14 -1 -21z m38 -12 c-16 -16 -26
0 -10 19 9 11 15 12 17 4 2 -6 -1 -17 -7 -23z m-22 -262 c-7 -7 -8 -4 -3 9 9
24 -14 38 -39 24 -17 -9 -19 -8 -14 7 4 9 7 20 7 25 0 4 8 7 18 6 12 -1 18 8
21 34 4 29 6 24 12 -30 5 -41 5 -68 -2 -75z m-42 93 c-3 -7 -5 -2 -5 12 0 14
2 19 5 13 2 -7 2 -19 0 -25z m2888 14 c-3 -3 -11 0 -18 7 -9 10 -8 11 6 5 10
-3 15 -9 12 -12z m-2890 -102 c3 -5 1 -10 -4 -10 -6 0 -11 5 -11 10 0 6 2 10
4 10 3 0 8 -4 11 -10z m2010 -180 c3 -6 -1 -7 -9 -4 -18 7 -21 14 -7 14 6 0
13 -4 16 -10z m-2435 -160 c11 -21 1 -27 -17 -9 -8 8 -31 4 -84 -14 -41 -14
-90 -28 -110 -32 -27 -5 -48 -21 -87 -64 l-51 -58 -10 -99 c-12 -112 -31 -414
-31 -489 1 -46 4 -53 44 -87 l43 -37 94 24 c105 28 117 29 103 16 -10 -10
-161 -51 -188 -51 -8 0 -38 17 -66 38 l-51 37 6 130 c8 178 24 420 32 480 5
43 14 58 60 107 43 44 65 59 101 68 26 6 76 22 112 35 82 29 87 29 100 5z
m410 -50 c0 -6 -8 -9 -17 -8 -10 1 -37 0 -60 0 l-43 -2 0 -49 c0 -35 4 -51 15
-55 12 -4 13 -10 6 -24 -5 -9 -17 -47 -26 -82 -9 -36 -27 -92 -40 -126 -13
-33 -35 -121 -49 -195 -38 -198 -32 -182 -66 -175 -30 5 -30 5 -30 -43 0 -46
1 -49 31 -55 17 -3 70 -6 116 -6 74 0 84 2 79 16 -3 9 -6 31 -6 49 0 27 -4 34
-22 37 -20 3 -23 8 -21 42 2 22 7 44 12 49 10 10 111 -1 111 -11 0 -4 -22 -5
-50 -4 -51 4 -50 5 -54 -40 -1 -7 5 -14 12 -14 6 -1 17 -2 22 -3 6 0 10 -32
10 -71 l0 -70 -84 0 c-46 0 -104 3 -130 6 l-47 7 3 66 3 66 32 -1 c36 -2 30
-19 63 171 12 66 33 149 47 185 38 94 64 203 52 211 -7 4 -8 30 -4 72 l7 66
57 3 c61 3 71 2 71 -12z m137 -6 c58 -7 60 -11 61 -84 1 -45 -13 -74 -30 -64
-5 4 -7 -7 -4 -28 37 -213 58 -359 61 -433 4 -84 4 -86 -6 -35 -18 98 -79 487
-79 504 0 9 8 16 20 16 17 0 20 7 20 48 l0 48 -75 13 c-41 7 -75 17 -75 23 0
6 11 8 28 4 15 -3 51 -9 79 -12z m-487 -110 c-6 -43 -15 -89 -20 -101 -9 -23
-40 -32 -40 -13 0 6 6 10 14 10 16 0 42 143 33 186 -4 22 -3 24 9 12 12 -12
13 -28 4 -94z m764 97 c3 -5 86 -58 183 -119 175 -109 179 -112 221 -181 l43
-70 -3 -143 -3 -142 -59 -33 c-67 -38 -78 -40 -114 -15 -15 10 -44 29 -64 41
l-38 23 0 -96 c0 -70 3 -96 13 -96 30 -1 42 -20 44 -72 2 -60 -4 -88 -18 -88
-6 0 -61 26 -124 57 l-114 57 -6 62 c-8 69 -3 84 26 84 18 0 19 10 19 280 0
166 -4 280 -9 280 -5 0 -17 7 -26 16 -13 14 -15 29 -9 83 3 36 8 69 11 74 6
10 21 9 27 -2z m-910 -108 c-3 -21 -10 -55 -14 -77 -8 -37 -7 -38 16 -33 13 2
27 1 29 -4 7 -11 -55 -23 -65 -13 -5 5 -2 38 6 73 8 35 13 66 10 68 -3 3 -27
-2 -54 -11 l-49 -17 -11 -72 c-11 -70 -28 -467 -21 -467 2 1 27 7 54 14 35 9
50 18 49 30 0 9 -1 40 -2 70 -2 49 -4 54 -22 49 -27 -7 -32 11 -23 91 l8 69
50 13 c28 7 52 11 53 9 6 -6 -56 -35 -73 -35 -10 0 -15 -10 -15 -34 0 -18 -3
-47 -6 -64 -6 -28 -4 -29 20 -25 18 4 26 1 27 -8 2 -34 -3 -164 -6 -167 -3 -4
-115 -31 -129 -32 -11 0 1 338 17 474 l12 99 55 17 c86 28 92 27 84 -17z m496
-153 c0 -5 -8 -10 -18 -10 -15 0 -20 -16 -33 -89 l-15 -89 28 -6 c42 -8 34
-28 -9 -24 -31 2 -38 7 -37 23 2 26 25 176 30 193 4 14 54 17 54 2z m74 -105
c4 -58 5 -109 2 -113 -6 -11 -76 -2 -76 9 0 5 15 9 33 9 l33 0 -7 68 c-4 37
-5 77 -2 90 4 17 1 22 -16 22 -12 0 -21 5 -21 10 0 6 11 10 24 10 22 0 23 -3
30 -105z m-452 -102 l-4 -178 -36 -62 c-35 -59 -58 -81 -71 -67 -3 3 2 10 11
15 9 5 29 33 46 61 28 51 29 58 35 226 6 167 6 172 -13 162 -11 -6 -21 -6 -24
-1 -7 11 10 19 40 20 21 1 21 -1 16 -176z m484 -156 c1 -1 4 -22 5 -47 4 -42
2 -45 -21 -45 -26 0 -36 -20 -39 -77 -1 -25 3 -27 55 -38 31 -7 52 -16 48 -20
-5 -5 -34 -3 -64 3 l-55 13 3 39 c5 86 12 107 33 102 16 -4 19 0 19 30 0 31
-2 34 -27 33 -45 -3 -63 -1 -63 9 0 8 99 6 106 -2z m202 -186 c2 -35 -1 -67
-5 -72 -10 -10 -123 10 -123 22 0 5 24 6 55 3 l55 -7 0 52 c0 44 -3 51 -20 51
-11 0 -20 5 -20 11 0 6 12 9 28 7 26 -3 27 -5 30 -67z"/>
<path d="M2647 2857 c-2 -15 2 -32 10 -38 7 -6 11 -14 9 -18 -3 -4 9 -13 26
-20 27 -12 32 -12 40 2 5 9 16 14 26 11 10 -4 13 -2 7 3 -5 4 -10 25 -10 46
l0 39 -52 2 c-49 1 -52 0 -56 -27z"/>
<path d="M2815 2770 c3 -5 8 -10 11 -10 2 0 4 5 4 10 0 6 -5 10 -11 10 -5 0
-7 -4 -4 -10z"/>
<path d="M3075 2300 c-3 -5 -2 -10 4 -10 5 0 18 -3 28 -7 17 -6 17 -6 1 10
-19 20 -24 21 -33 7z"/>
<path d="M3490 1300 c0 -49 3 -61 20 -70 19 -10 20 -21 20 -309 0 -164 -3
-301 -6 -304 -4 -3 -16 -1 -27 4 -19 11 -20 9 -13 -21 3 -18 6 -44 6 -59 0
-24 11 -32 105 -79 58 -28 107 -52 110 -52 3 0 5 24 5 53 0 47 -3 54 -30 69
l-30 17 0 105 c0 58 4 107 8 110 5 3 42 -15 82 -40 l73 -46 59 28 58 28 0 135
0 135 -40 67 c-38 65 -44 69 -214 178 -97 61 -178 111 -181 111 -3 0 -5 -27
-5 -60z m284 -249 c20 -23 35 -231 16 -231 -8 0 -42 19 -77 41 l-63 41 0 108
c0 58 3 109 6 112 7 7 96 -47 118 -71z"/>
<path d="M3673 1003 c3 -54 6 -99 6 -100 1 -1 24 -15 52 -33 l51 -31 -5 88
c-3 48 -8 95 -12 103 -3 9 -26 28 -51 43 l-46 28 5 -98z"/>
<path d="M1 4990 l1 -45 11 33 c7 24 7 36 -1 44 -9 9 -12 1 -11 -32z"/>
<path d="M4290 4930 c0 -11 4 -20 9 -20 5 0 11 9 14 20 3 13 0 20 -9 20 -8 0
-14 -9 -14 -20z"/>
<path d="M4978 4938 c-4 -9 -4 -34 -1 -54 6 -34 4 -37 -13 -30 -17 6 -17 5 -4
-8 11 -11 14 -33 12 -86 -4 -72 -15 -87 -42 -55 -7 8 -18 15 -24 15 -6 -1 -2
-8 9 -18 11 -9 20 -26 19 -37 -1 -42 62 -77 90 -50 15 15 16 15 16 -1 0 -10 3
-14 8 -10 10 10 10 56 0 56 -4 0 -8 7 -8 15 0 8 -9 19 -20 25 -16 9 -20 8 -20
-7 0 -12 -3 -14 -10 -7 -12 12 -3 44 12 44 5 0 16 7 24 15 9 8 11 15 5 15 -6
0 -11 7 -11 15 0 8 -4 15 -10 15 -5 0 -10 -5 -10 -12 0 -9 -3 -9 -12 1 -11 10
-9 15 6 27 11 8 14 14 8 14 -18 0 -15 21 6 37 16 14 16 14 -2 9 -15 -5 -17 -2
-13 16 2 13 1 34 -2 48 -6 20 -8 22 -13 8z m25 -280 c5 -17 -3 -38 -14 -38 -5
0 -9 7 -9 15 0 8 -7 15 -15 15 -8 0 -15 5 -15 10 0 15 48 12 53 -2z"/>
<path d="M1920 4889 c0 -6 -7 -17 -15 -25 -9 -10 -13 -24 -9 -40 4 -14 1 -31
-6 -39 -7 -9 -10 -18 -7 -22 4 -3 2 -12 -4 -19 -7 -9 -7 -19 1 -34 7 -12 8
-34 4 -53 -11 -53 -10 -158 2 -168 8 -6 24 -3 47 8 28 15 37 27 46 65 7 26 19
52 27 59 8 6 14 20 14 30 0 14 -7 19 -29 19 -17 0 -33 6 -38 13 -14 22 -7 112
12 140 15 24 16 27 1 33 -8 3 -18 14 -21 25 -7 20 -25 26 -25 8z"/>
<path d="M2177 4833 c-9 -9 -9 -43 1 -43 18 1 34 19 29 34 -7 17 -19 21 -30 9z"/>
<path d="M5052 4760 c0 -14 2 -19 5 -12 2 6 2 18 0 25 -3 6 -5 1 -5 -13z"/>
<path d="M4667 4730 c-3 -11 -1 -20 5 -20 5 0 6 -5 2 -11 -3 -6 -8 -29 -10
-51 -2 -31 -11 -50 -39 -78 -36 -37 -37 -38 -20 -64 10 -14 20 -26 24 -26 18
1 30 20 36 63 8 51 11 54 34 33 11 -9 23 -11 39 -5 19 7 21 13 16 36 -9 38
-13 43 -30 43 -10 0 -14 12 -14 38 0 53 -32 84 -43 42z"/>
<path d="M2025 4720 c-7 -12 2 -30 16 -30 5 0 9 9 9 20 0 21 -15 27 -25 10z"/>
<path d="M2269 4683 c-13 -15 -10 -15 26 -9 54 10 69 26 23 26 -21 0 -41 -7
-49 -17z"/>
<path d="M5050 4679 c0 -5 5 -7 10 -4 6 3 10 8 10 11 0 2 -4 4 -10 4 -5 0 -10
-5 -10 -11z"/>
<path d="M2182 4653 c2 -10 10 -18 18 -18 8 0 16 8 18 18 2 12 -3 17 -18 17
-15 0 -20 -5 -18 -17z"/>
<path d="M4560 4644 c-19 -14 -36 -29 -38 -34 -5 -14 82 1 100 18 17 14 17 16
0 28 -22 17 -20 17 -62 -12z"/>
<path d="M5143 4640 c2 -20 8 -25 32 -27 17 -1 22 1 12 4 -15 4 -16 7 -6 21
11 14 11 15 -1 5 -19 -17 -28 -16 -34 5 -3 10 -4 6 -3 -8z"/>
<path d="M5110 4600 c0 -5 4 -10 9 -10 6 0 13 5 16 10 3 6 -1 10 -9 10 -9 0
-16 -4 -16 -10z"/>
<path d="M5120 4545 c-17 -20 9 -21 36 0 19 14 19 14 -2 15 -12 0 -27 -7 -34
-15z"/>
<path d="M5364 4547 c-4 -7 -4 -9 1 -5 4 4 14 0 21 -10 12 -15 13 -15 14 -1 0
21 -27 32 -36 16z"/>
<path d="M4682 4517 c4 -38 22 -43 26 -6 2 17 -3 29 -13 33 -13 5 -16 0 -13
-27z"/>
<path d="M2262 4508 c4 -33 -18 -58 -50 -58 -25 0 -25 -1 -6 -15 26 -20 61
-19 73 3 13 25 9 85 -7 90 -10 3 -13 -3 -10 -20z"/>
<path d="M1810 4493 c-13 -15 -12 -16 4 -10 10 4 20 7 22 7 2 0 4 5 4 10 0 15
-13 12 -30 -7z"/>
<path d="M5387 4503 c-4 -3 -7 -22 -7 -41 0 -45 10 -36 13 12 4 39 4 39 -6 29z"/>
<path d="M4050 4445 c0 -24 -5 -35 -15 -35 -8 0 -15 -4 -15 -10 0 -5 5 -10 10
-10 18 0 11 -40 -7 -40 -17 -1 -17 -1 0 -14 9 -7 17 -21 17 -30 0 -19 11 -21
28 -4 9 9 16 7 32 -7 16 -14 25 -17 37 -9 23 14 28 34 9 34 -18 0 -22 35 -6
45 17 11 11 23 -12 27 -15 2 -23 10 -24 23 -3 62 -54 90 -54 30z"/>
<path d="M4668 4462 c-10 -2 -18 -10 -18 -17 0 -7 -3 -20 -6 -29 -8 -20 19
-21 36 -2 17 21 9 52 -12 48z"/>
<path d="M5300 4427 c8 -7 21 -19 28 -27 7 -9 12 -10 12 -3 0 15 -28 43 -43
43 -8 -1 -6 -5 3 -13z"/>
<path d="M5439 4400 c-23 -18 -23 -19 -4 -20 11 0 26 9 33 20 16 26 1 26 -29
0z"/>
<path d="M5190 4391 c0 -5 -8 -11 -18 -13 -19 -5 -27 -44 -11 -53 5 -4 9 1 9
9 0 9 3 16 8 16 4 0 12 11 19 25 6 14 7 25 2 25 -5 0 -9 -4 -9 -9z"/>
<path d="M3950 4382 c0 -12 19 -26 26 -19 2 2 -2 10 -11 17 -9 8 -15 8 -15 2z"/>
<path d="M5375 4345 c0 -14 3 -25 8 -25 4 0 7 4 7 9 0 5 3 16 6 25 4 10 1 16
-7 16 -8 0 -14 -11 -14 -25z"/>
<path d="M2080 4339 c0 -5 5 -7 10 -4 6 3 10 8 10 11 0 2 -4 4 -10 4 -5 0 -10
-5 -10 -11z"/>
<path d="M3775 4300 c-3 -5 1 -10 10 -10 9 0 13 5 10 10 -3 6 -8 10 -10 10 -2
0 -7 -4 -10 -10z"/>
<path d="M5410 4299 c0 -5 5 -7 10 -4 6 3 10 8 10 11 0 2 -4 4 -10 4 -5 0 -10
-5 -10 -11z"/>
<path d="M5325 4280 c-3 -5 1 -10 9 -10 9 0 16 5 16 10 0 6 -4 10 -9 10 -6 0
-13 -4 -16 -10z"/>
<path d="M3715 4270 c-11 -18 5 -31 26 -20 11 6 17 15 14 21 -8 12 -32 12 -40
-1z"/>
<path d="M5250 4215 c0 -8 5 -15 10 -15 6 0 10 7 10 15 0 8 -4 15 -10 15 -5 0
-10 -7 -10 -15z"/>
<path d="M113 4193 c9 -2 25 -2 35 0 9 3 1 5 -18 5 -19 0 -27 -2 -17 -5z"/>
<path d="M5335 4185 c5 -11 8 -33 8 -48 0 -34 21 -31 25 4 2 16 -5 32 -19 45
-22 19 -22 19 -14 -1z"/>
<path d="M5480 4185 c0 -8 8 -11 20 -8 11 3 20 7 20 8 0 1 -9 5 -20 8 -12 3
-20 0 -20 -8z"/>
<path d="M2990 4170 c0 -6 7 -10 15 -10 8 0 15 2 15 4 0 2 -7 6 -15 10 -8 3
-15 1 -15 -4z"/>
<path d="M2152 4137 c-31 -33 -28 -37 22 -37 54 0 81 24 51 46 -27 20 -48 17
-73 -9z"/>
<path d="M5395 4150 c3 -5 8 -10 11 -10 2 0 4 5 4 10 0 6 -5 10 -11 10 -5 0
-7 -4 -4 -10z"/>
<path d="M5478 4135 c-4 -20 -1 -25 16 -25 17 0 18 2 6 10 -10 6 -11 10 -2 10
6 0 12 7 12 15 0 25 -27 17 -32 -10z"/>
<path d="M5255 4130 c-3 -5 -1 -10 4 -10 6 0 11 5 11 10 0 6 -2 10 -4 10 -3 0
-8 -4 -11 -10z"/>
<path d="M5542 4120 c-12 -10 -18 -21 -13 -24 8 -6 20 5 35 32 10 16 5 15 -22
-8z"/>
<path d="M5417 4113 c-4 -3 -7 -12 -7 -20 0 -18 37 -16 44 3 3 8 2 12 -4 9 -6
-3 -10 -1 -10 4 0 12 -13 14 -23 4z"/>
<path d="M5284 4074 c6 -19 15 -34 19 -34 5 0 5 5 1 12 -4 6 1 17 10 23 15 12
14 14 -12 23 l-28 10 10 -34z"/>
<path d="M5555 4080 c-3 -5 -1 -10 4 -10 6 0 11 5 11 10 0 6 -2 10 -4 10 -3 0
-8 -4 -11 -10z"/>
<path d="M1 4044 c0 -11 3 -14 6 -6 3 7 2 16 -1 19 -3 4 -6 -2 -5 -13z"/>
<path d="M5548 4053 c7 -3 16 -2 19 1 4 3 -2 6 -13 5 -11 0 -14 -3 -6 -6z"/>
<path d="M5935 4045 l-50 -14 50 6 c28 3 54 9 60 14 12 11 3 11 -60 -6z"/>
<path d="M3670 3973 c0 -9 63 -43 80 -43 6 0 10 5 10 10 0 6 -9 10 -20 10 -12
0 -32 7 -45 16 -14 9 -25 12 -25 7z"/>
<path d="M6384 3869 c-3 -6 -1 -16 5 -22 8 -8 11 -5 11 11 0 24 -5 28 -16 11z"/>
<path d="M5940 3746 c0 -2 7 -7 16 -10 8 -3 12 -2 9 4 -6 10 -25 14 -25 6z"/>
<path d="M3168 3413 c6 -2 18 -2 25 0 6 3 1 5 -13 5 -14 0 -19 -2 -12 -5z"/>
<path d="M2680 3320 c0 -5 5 -10 11 -10 5 0 7 5 4 10 -3 6 -8 10 -11 10 -2 0
-4 -4 -4 -10z"/>
<path d="M2780 3223 c0 -5 5 -15 10 -23 8 -12 10 -11 10 8 0 12 -4 22 -10 22
-5 0 -10 -3 -10 -7z"/>
</g>
</svg>
